<svg xmlns="http://www.w3.org/2000/svg" viewBox="0 0 32 32"><defs><style>.cls-1{fill:#d1e6e9}.cls-2{fill:#68c7d3}.cls-4{fill:#a1d8df}</style></defs><g id="Pharmacy"><path class="cls-1" d="M3 14h26v17H3z"/><path class="cls-2" d="M5 7h22l4 7H1l4-7z"/><circle cx="16" cy="6" r="5" style="fill:#30acc2"/><path class="cls-1" d="M13 5h6v2h-6z"/><path class="cls-1" transform="rotate(90 16 6)" d="M13 5h6v2h-6z"/><path class="cls-2" d="M1 14h5v.5A2.5 2.5 0 0 1 3.5 17 2.5 2.5 0 0 1 1 14.5V14zM6 14h5v.5A2.5 2.5 0 0 1 8.5 17 2.5 2.5 0 0 1 6 14.5V14zM11 14h5v.5a2.5 2.5 0 0 1-2.5 2.5 2.5 2.5 0 0 1-2.5-2.5V14zM16 14h5v.5a2.5 2.5 0 0 1-2.5 2.5 2.5 2.5 0 0 1-2.5-2.5V14zM21 14h5v.5a2.5 2.5 0 0 1-2.5 2.5 2.5 2.5 0 0 1-2.5-2.5V14zM26 14h5v.5a2.5 2.5 0 0 1-2.5 2.5 2.5 2.5 0 0 1-2.5-2.5V14zM1 29h30v2H1z"/><path class="cls-4" d="M6 18h8v13H6zM17 18h9v9h-9z"/></g></svg>